<svg xmlns="http://www.w3.org/2000/svg" viewBox="0 0 48 48"><path d="M34.0964,17.3091A10.9557,10.9557,0,0,0,35,13a10.8,10.8,0,0,0-.267-2.3708l.0863-2.4134v-.001A6.0055,6.0055,0,0,0,28.82,2H14.13a4.0015,4.0015,0,0,0-3.4917,5.96l2.4,4.2623C13.02,12.48,13,12.7382,13,13a10.9557,10.9557,0,0,0,.9036,4.3091C9.2642,20.5887,7,25.0746,7,31V44a2.0023,2.0023,0,0,0,2,2H39a2.0023,2.0023,0,0,0,2-2V31C41,25.0746,38.7358,20.5887,34.0964,17.3091ZM33,32a2,2,0,1,1-2,2A2.0023,2.0023,0,0,1,33,32ZM31.0789,18.5225a8.4872,8.4872,0,0,1-.7687.87c-.067.0664-.1384.1273-.2074.1914a9.0114,9.0114,0,0,1-.8075.67c-.1605.1175-.3206.2355-.4884.342-.1232.0788-.25.1512-.3764.2236-.2164.123-.4373.2377-.6635.3422-.09.042-.1786.0878-.27.1267a8.957,8.957,0,0,1-1.0072.3576c-.0672.0194-.1361.0327-.2038.05a8.98,8.98,0,0,1-.8857.1845c-.0965.0151-.1928.03-.29.0425a8.1333,8.1333,0,0,1-2.22,0c-.0976-.0121-.1943-.0275-.2912-.0427q-.4448-.07-.8768-.1827c-.0716-.0187-.1446-.033-.2156-.0535a8.94,8.94,0,0,1-.9965-.3537c-.1015-.0431-.2-.094-.3-.1408q-.3192-.1485-.6248-.3221c-.1376-.0785-.275-.1574-.4087-.2434-.1474-.0939-.2878-.1982-.43-.3006a9.0866,9.0866,0,0,1-.8894-.7361c-.0579-.0545-.1186-.1056-.1751-.1616a8.3761,8.3761,0,0,1-.7576-.8589c-.05-.0639-.106-.1215-.1543-.187a9.212,9.212,0,0,1-.7282-1.15A8.95,8.95,0,0,1,15,13v-.0078c.1528-.0017.2979-.0084.4481-.0119.1793-.004.3591-.0075.5347-.0141.2166-.008.4276-.0192.6385-.0308.1692-.0093.3393-.0177.5049-.0291.2071-.0143.4081-.0315.6094-.0489.16-.0138.3213-.0268.4778-.0425.1991-.02.3919-.0425.585-.0652.1492-.0175.3-.0342.4456-.0533.191-.025.3751-.0524.56-.08.1383-.0206.2784-.04.4133-.0619.184-.03.3607-.0616.5381-.0934.1262-.0227.2546-.0443.3773-.0679.1765-.0338.3452-.0694.5147-.1049.1144-.024.2315-.0471.3427-.0718.1684-.0373.3285-.0759.49-.1145.1032-.0247.2095-.0488.31-.074.1619-.0406.3148-.082.4688-.1235.0893-.0241.182-.0478.2685-.072.1566-.0439.3038-.088.4516-.1322.0751-.0225.1539-.0448.2266-.0673.1448-.0447.28-.0892.4154-.1336.0677-.0223.1394-.0445.2048-.0666.1351-.0456.26-.09.385-.135.0557-.02.1159-.04.17-.06.129-.0471.2472-.0927.3647-.1381.0418-.0162.0879-.033.1282-.0489.1337-.0526.2563-.1029.374-.1521L26.3,10.877c.1281-.054.2456-.1051.3535-.1536l.0132-.0057c.1115-.05.2127-.097.3022-.14.1754.09.3639.1732.5621.2522.063.025.1327.0468.1979.0707.1417.0521.2847.1036.4373.1505.0755.0232.1567.0438.2348.0657.1551.0436.3123.086.4776.1247.0766.0178.1569.0339.2358.0506.1818.0389.368.0755.5615.1086.0691.0118.14.0227.21.0337q.3266.0514.6739.0923.084.01.1691.0192.3837.0417.7923.0709c.0456.0033.0906.0069.1366.01q.4161.0276.8578.0422c.0589.002.1165.0047.1761.0064.0723.002.14.0064.2133.0079A9.04,9.04,0,0,1,33,13a8.95,8.95,0,0,1-1.043,4.19,9.19,9.19,0,0,1-.73,1.1529C31.1805,18.406,31.1266,18.4611,31.0789,18.5225ZM24,27.1387l-2.1308-3.3451c.17.0333.3432.05.5148.0755.12.0177.2381.0388.3589.0526a10.1329,10.1329,0,0,0,2.5145,0c.12-.0137.2376-.0347.3566-.0523.1723-.0253.3466-.0422.5167-.0756ZM12.4014,4.9883A1.9835,1.9835,0,0,1,14.13,4H28.82A4.0044,4.0044,0,0,1,32.82,8.1436l-.0546,1.5339c-.0227-.0006-.0474,0-.07-.0009-.0624-.0019-.12-.0059-.1821-.0082-.26-.01-.5149-.022-.76-.0388-.0918-.0063-.1789-.0149-.2685-.0221-.205-.0167-.4064-.0348-.6-.0565-.1-.0111-.1954-.0239-.2917-.0364-.1731-.0224-.3418-.0467-.5044-.0734q-.1448-.0237-.2837-.05c-.1513-.0282-.2965-.0588-.4374-.091-.0881-.02-.1763-.04-.26-.0618-.1349-.0348-.2611-.0725-.3849-.1111-.0749-.0233-.1525-.0458-.2233-.0706-.1261-.044-.2405-.0919-.353-.14-.0541-.0234-.1136-.0448-.1644-.0691a3.3971,3.3971,0,0,1-.4254-.2371.9962.9962,0,0,0-1.0527-.0381c-.0407.0228-3.78,2.11-10.4347,2.39l-.0892.0038c-.3421.0135-.6972.0186-1.0545.022q-.1427.0009-.2868.0007L12.3823,6.9814A1.9866,1.9866,0,0,1,12.4014,4.9883ZM9,31c0-4.8134,1.6147-8.4226,5-11.2278v10.37A3.9958,3.9958,0,0,0,11,34v3a1,1,0,0,0,1,1h1a1,1,0,0,0,0-2V34a2,2,0,0,1,4,0v2a1,1,0,0,0,0,2h1a1,1,0,0,0,1-1V34a3.9958,3.9958,0,0,0-3-3.858V20.521c.102.107.2008.2184.3066.32.0157.0155.0331.0284.0488.0438.1973.1919.4019.3735.6123.5494.1092.092.22.18.3327.2676.1852.143.37.2842.5642.4149.1878.1276.3822.2424.5767.3576.12.0706.2331.1535.3559.2194L23,29.2911V44H9ZM31,44V42h4v2Zm8,0H37V41a1,1,0,0,0-1-1H30a1,1,0,0,0-1,1v3H25V29.2911l4.2027-6.5976c.1041-.0559.2-.1265.3018-.1858.2174-.127.4334-.2559.6422-.3983.181-.1224.3543-.2544.5279-.3877.1239-.0958.2464-.1931.3665-.2947.2043-.1712.4032-.3476.5953-.534.0149-.0145.0314-.0268.0462-.0414.0217-.0209.0388-.0473.06-.0683q.1305-.13.257-.2648V30.142a4,4,0,1,0,2,0v-10.37C37.3853,22.5774,39,26.1866,39,31Z"/><path d="M27,16a1,1,0,0,0-1,1,1.0009,1.0009,0,0,1-1,1H23a1.0009,1.0009,0,0,1-1-1,1,1,0,0,0-2,0,3.0033,3.0033,0,0,0,3,3h2a3.0033,3.0033,0,0,0,3-3A1,1,0,0,0,27,16Z"/></svg>