<svg xmlns="http://www.w3.org/2000/svg" data-name="Layer 1" viewBox="0 0 512 512"><path fill="#343c4a" d="M313.34136,313.1506,256,327.499l-57.34761-14.35a84.749,84.749,0,0,1-61.56375-103.09632l15.20318-59.799V107.23413A103.73511,103.73511,0,0,1,256.02692,3.499h.00021A103.73511,103.73511,0,0,1,359.76224,107.23413v43.27724l15.14129,59.5367A84.749,84.749,0,0,1,313.34136,313.1506Z"/><path fill="#f9f7f8" d="M64.44049,501.999V387.7149a80,80,0,0,1,43.484-71.17993L187.946,275.48316a80,80,0,0,1,36.516-8.82007h63.076a80,80,0,0,1,36.516,8.82007L404.0755,316.535a80,80,0,0,1,43.484,71.17993V501.999a10,10,0,0,1-10,10H74.44049A10,10,0,0,1,64.44049,501.999Z"/><path fill="#f96263" d="M187.946,275.48316a80,80,0,0,1,36.516-8.82007h63.076a80,80,0,0,1,36.516,8.82007L255.99688,511.999Z"/><path fill="#f9beac" d="M205.13879,220.13818V301.0835c3.05506,3.19873,21.76075,22.13867,51.65747,21.80029,28.9455-.32764,46.8974-18.48291,50.065-21.80029V220.13818Z"/><path fill="#eaeaea" d="M275.79978,511.999,353.5655,356.6544a5,5,0,0,0-.93462-5.77556l-15.14243-15.14243a5,5,0,0,1,1.4937-8.09963L356.3454,319.869a5,5,0,0,0,1.85238-7.70019l-26.30573-32.66466-25.03086-12.84107L255.26389,511.999Z"/><path fill="#eaeaea" d="M237.20842,511.999,158.44657,356.65875a5,5,0,0,1,.92913-5.78649l15.13585-15.13585a5,5,0,0,0-1.4937-8.09963l-17.89581-8.006a5,5,0,0,1-2.12437-7.32864l19.00425-28.63949,33.13689-16.99954L256.73611,511.999Z"/><circle cx="396.451" cy="399.86" r="22.282" fill="#343c4a"/><path fill="#343c4a" d="M107.502,432.64307a3.4999,3.4999,0,0,1-3.43945-2.85205l-6.05176-32.12159A27.91119,27.91119,0,1,1,152.86816,387.335l6.05176,32.12109a3.50048,3.50048,0,0,1-2.7915,4.08741l-10.77881,2.03076a3.5,3.5,0,0,1-1.2959-6.87891l7.33936-1.38281-5.40381-28.68164a20.91128,20.91128,0,0,0-41.09961,7.74268l5.40381,28.68212,7.33935-1.38281a3.5,3.5,0,0,1,1.2959,6.87891l-10.77881,2.03076A3.4979,3.4979,0,0,1,107.502,432.64307Z"/><path fill="#e58a7b" d="M205.13879,253.45947a88.28124,88.28124,0,0,0,14.25245,12.81787h.00012a63.70664,63.70664,0,0,0,37.18933,11.98194h12.83838a63.70686,63.70686,0,0,0,37.18945-11.98194l.00031-.00048c.0852-.061.16742-.12549.25238-.187V220.13818H205.13879Z"/><path fill="#f9beac" d="M336.37234,171.915V173.564a88.32508,88.32508,0,0,1-36.76354,71.7129l-.00031.00048A63.70686,63.70686,0,0,1,262.419,257.25928H249.58066a63.70664,63.70664,0,0,1-37.18933-11.98194h-.00013a88.32569,88.32569,0,0,1-36.76354-71.71289V107.32927a1.99119,1.99119,0,0,1,1.92686-1.99767c10.084-.31518,32.85868-2.66315,53.87428-19.16021a89.43185,89.43185,0,0,0,22.60648-26.42677,1.99339,1.99339,0,0,1,3.37743-.17023,108.06439,108.06439,0,0,0,28.14488,27.76106,108.87406,108.87406,0,0,0,49.03034,17.8575,1.99664,1.99664,0,0,1,1.78441,1.98748Z"/><path fill="#e58a7b" d="M268.70444 175.839v5.74255a12.7012 12.7012 0 0 1-12.7012 12.70119h-.00648a12.7012 12.7012 0 0 1-12.7012-12.70119V175.839a2 2 0 0 1 2-2h21.40888A2 2 0 0 1 268.70444 175.839zM336.37239 172.10572h0V131.05605h5.7301a17.65978 17.65978 0 0 1 17.65977 17.65973v0A23.38984 23.38984 0 0 1 336.37239 172.10572z"/><path fill="#e58a7b" d="M152.23776,131.05605h.00008a23.38985,23.38985,0,0,1,23.38985,23.38985v.00005a17.65977,17.65977,0,0,1-17.65977,17.65977h-5.73016a0,0,0,0,1,0,0V131.05605A0,0,0,0,1,152.23776,131.05605Z" transform="rotate(-180 163.933 151.58)"/><path fill="#343c4a" d="M290.86621,154.38574a3.49986,3.49986,0,0,1-3.5-3.5v-7.4331a3.5,3.5,0,1,1,7,0v7.4331A3.49985,3.49985,0,0,1,290.86621,154.38574Z"/><path d="M128.12012,431.82617a3.49986,3.49986,0,0,0-3.5,3.5V508.5a3.5,3.5,0,0,0,7,0V435.32617A3.49987,3.49987,0,0,0,128.12012,431.82617Zm255.75976,0a3.49987,3.49987,0,0,0-3.5,3.5V508.5a3.5,3.5,0,0,0,7,0V435.32617A3.49986,3.49986,0,0,0,383.87988,431.82617ZM256,197.78369a16.2212,16.2212,0,0,0,16.20459-16.20117v-5.52979a3.5,3.5,0,0,0-7,0v5.52979a9.20459,9.20459,0,0,1-18.40918,0v-5.52979a3.5,3.5,0,0,0-7,0v5.52979A16.2212,16.2212,0,0,0,256,197.78369Zm34.86621-57.83008a3.49987,3.49987,0,0,0-3.5,3.5v7.43311a3.5,3.5,0,0,0,7,0v-7.43311A3.49986,3.49986,0,0,0,290.86621,139.95361ZM303.874,129.94043a34.20486,34.20486,0,0,0-26.01757.00049,3.5,3.5,0,1,0,2.6582,6.47558,27.16113,27.16113,0,0,1,9.66162-2.03711,27.4582,27.4582,0,0,1,11.04248,2.0376,3.49987,3.49987,0,1,0,2.65527-6.47656ZM405.67773,313.42578l-46.81817-24.01953A87.56819,87.56819,0,0,0,378.292,209.1875l-15.03222-59.11572V148.813c.00012-.03223.00244-.064.00244-.09619,0-.01612-.00238-.03223-.00244-.04834V107.24023a107.23487,107.23487,0,1,0-214.46973,0v40.44532c-.01672.34375-.05225.6831-.05225,1.03125,0,.39648.01294.79.03,1.18261L133.69775,209.1875a87.6057,87.6057,0,0,0,19.4303,80.22461l-18.65747,9.57227a3.45381,3.45381,0,0,0-.77429.39746l-27.37354,14.04394a83.15776,83.15776,0,0,0-45.38281,74.29443V508.5a3.5,3.5,0,1,0,7,0V387.72021a76.18727,76.18727,0,0,1,41.57764-68.0664l17.334-8.89307a106.70937,106.70937,0,0,0-11.01465,55.53955,27.95184,27.95184,0,0,0-17.82617,31.37012L104.0625,429.792a3.49972,3.49972,0,0,0,4.0874,2.79151l10.77881-2.03077a3.5,3.5,0,1,0-1.2959-6.8789l-7.33935,1.38281-5.40381-28.68213a20.91128,20.91128,0,0,1,41.09961-7.74267l5.40381,28.68164-7.33936,1.38281a3.5,3.5,0,0,0,1.2959,6.87891l10.77881-2.03077a3.50048,3.50048,0,0,0,2.7915-4.0874l-6.05176-32.12109a27.90339,27.90339,0,0,0-30.13427-22.60889,100.14463,100.14463,0,0,1,15.39563-59.75244L161.677,292.89307l-11.59546,17.47461a8.49945,8.49945,0,0,0,3.61133,12.459l17.896,8.00586a1.5003,1.5003,0,0,1,.44824,2.42969l-15.13672,15.13623a8.48585,8.48585,0,0,0-1.5791,9.83691l76.55322,151.84033a3.50021,3.50021,0,1,0,6.251-3.15136L161.57227,355.084a1.49682,1.49682,0,0,1,.27783-1.73584l15.13672-15.13574a8.5,8.5,0,0,0-2.53955-13.76953l-17.896-8.00586a1.50029,1.50029,0,0,1-.63721-2.19873l18.499-27.87793,28.24414-14.48974L252.56348,509.1665l.00134.00684.00989.04687c.0155.07374.047.13868.06677.21a3.51184,3.51184,0,0,0,.13513.4248c.04321.103.10114.19531.15326.29248.05475.10156.10382.20606.16827.30176a11.03443,11.03443,0,0,0,.43128.52344c.075.07519.15961.1372.24084.20507a3.50626,3.50626,0,0,0,.283.22559c.08887.05957.18567.105.27967.15625a3.4325,3.4325,0,0,0,.31488.165,3.58713,3.58713,0,0,0,.39959.127c.07874.02246.15107.05664.23237.07373l.02325.00244a3.5643,3.5643,0,0,0,.44141.04737c.0849.00635.17059.02392.25482.02392.08508,0,.17169-.01806.2575-.02441a3.5019,3.5019,0,0,0,.43732-.04639c.00873-.002.0174-.001.02612-.00293.09064-.019.17157-.05664.259-.08252a3.39458,3.39458,0,0,0,.36822-.1167,3.56109,3.56109,0,0,0,.34436-.18017c.08356-.04688.17035-.08643.24982-.13965a3.43022,3.43022,0,0,0,.30585-.24365c.07373-.062.15106-.11865.21954-.18653a3.4277,3.4277,0,0,0,.23254-.27343c.06812-.083.14026-.16162.20081-.25147a3.5018,3.5018,0,0,0,.1734-.31055c.05072-.09472.10718-.185.14935-.28515a3.52163,3.52163,0,0,0,.13648-.42871c.01941-.07031.05054-.13428.06573-.20655l.00971-.04638.00165-.00781,49.90612-237.29493,12.8935,6.61426c.017.00879.0307.021.04791.0293l7.3548,3.77295,25.8327,32.07763a1.50023,1.50023,0,0,1-.55566,2.31006l-17.36329,7.76758a8.5,8.5,0,0,0-2.53955,13.76953L350.15576,353.355a1.49773,1.49773,0,0,1,.28076,1.73242L274.34619,506.93213a3.49975,3.49975,0,1,0,6.25781,3.13574l76.09034-151.84473a8.48775,8.48775,0,0,0-1.58838-9.81835l-15.14258-15.14258a1.4999,1.4999,0,0,1,.44775-2.42969l17.36328-7.76758a8.4999,8.4999,0,0,0,3.14942-13.09033l-15.97089-19.83154,23.73163,12.17382a106.64485,106.64485,0,0,1,22.86231,49.96387,102.76133,102.76133,0,0,1,1.21765,22.06592,25.79619,25.79619,0,1,0,7.01074-.0459,109.72517,109.72517,0,0,0-1.32166-23.15771,111.76873,111.76873,0,0,0-16.07959-41.8042l20.10889,10.31543a76.18643,76.18643,0,0,1,41.57715,68.06591V508.5a3.5,3.5,0,0,0,7,0V387.72021A83.1582,83.1582,0,0,0,405.67773,313.42578ZM155.79,107.24023a100.23487,100.23487,0,1,1,200.46973,0v25.7959a21.0517,21.0517,0,0,0-14.15723-5.479h-2.23V107.18164a5.4913,5.4913,0,0,0-4.90674-5.46728,105.62285,105.62285,0,0,1-47.4502-17.2793,104.08557,104.08557,0,0,1-27.23193-26.86182,5.49349,5.49349,0,0,0-9.29639.45215,85.50042,85.50042,0,0,1-21.71972,25.394c-19.38867,15.21973-40.79053,18.07032-51.82227,18.41455a5.46982,5.46982,0,0,0-5.31787,5.4961v20.22705h-2.23A21.0491,21.0491,0,0,0,155.79,132.99121Zm200.46973,41.42823v.09668a19.90773,19.90773,0,0,1-16.38721,19.51416V134.55713h2.23A14.1743,14.1743,0,0,1,356.25977,148.66846ZM155.79,147.68555a14.1681,14.1681,0,0,1,14.10742-13.12842h2.23V168.2793A19.89741,19.89741,0,0,1,155.79,149.74805Zm45.8501,116.83935-15.273,7.83545-.01416.00537L159.56714,286.1084a80.693,80.693,0,0,1-19.08521-75.19629l12.23536-48.13574a26.93065,26.93065,0,0,0,19.4375,12.59863,92.09007,92.09007,0,0,0,29.48535,65.626Zm101.71972,1.78125L256,491.49316l-47.35986-225.187V246.85254c.56543.42676,1.13134.853,1.708,1.26758a66.816,66.816,0,0,0,39.23243,12.64013H262.419a66.81565,66.81565,0,0,0,39.23291-12.64062c.57666-.41455,1.14263-.84082,1.708-1.26758Zm-5.79443-23.86963A59.85673,59.85673,0,0,1,262.419,253.76025H249.58057a59.85416,59.85416,0,0,1-35.146-11.32373,85.02566,85.02566,0,0,1-35.30713-68.87109V131.062l.00049-.00488-.00049-.00488V108.77344c12.249-.57862,34.33057-4.04444,54.4624-19.84815a92.24929,92.24929,0,0,0,22.3169-25.43261,110.95875,110.95875,0,0,0,27.69287,26.74511,112.5961,112.5961,0,0,0,49.273,18.28174v65.04541A85.02592,85.02592,0,0,1,297.56543,242.43652Zm28,29.88868-.0177-.00831-15.18787-7.792V241.00049A92.08677,92.08677,0,0,0,339.84515,175.375a26.92914,26.92914,0,0,0,19.42664-12.582l12.236,48.11963a80.65544,80.65544,0,0,1-19.08795,75.18994Zm89.668,127.53613a18.78223,18.78223,0,1,1-18.78223-18.78223A18.80374,18.80374,0,0,1,415.2334,399.86133ZM234.14209,129.94043a34.20473,34.20473,0,0,0-26.01758.00049,3.5,3.5,0,0,0,2.6582,6.47558,27.15414,27.15414,0,0,1,9.66114-2.03711,27.46415,27.46415,0,0,1,11.043,2.0376,3.49987,3.49987,0,0,0,2.65527-6.47656Zm34.5791,80.82275a29.69537,29.69537,0,0,1-25.44189.00049,3.49987,3.49987,0,0,0-2.99805,6.3252A36.91933,36.91933,0,0,0,256.001,220.626h.11084a36.955,36.955,0,0,0,15.60644-3.53662,3.50011,3.50011,0,0,0-2.99707-6.32618Zm-47.5874-70.80957a3.49986,3.49986,0,0,0-3.5,3.5v7.43311a3.5,3.5,0,0,0,7,0v-7.43311A3.49987,3.49987,0,0,0,221.13379,139.95361ZM256,120.5a3.5,3.5,0,1,0-3.5-3.5A3.49994,3.49994,0,0,0,256,120.5Z"/></svg>