<svg xmlns="http://www.w3.org/2000/svg" data-name="Layer 1" viewBox="0 0 512 512"><path fill="#f9f7f8" d="M64.44049,501.999V387.7149a80,80,0,0,1,43.484-71.17993L187.946,275.48316a80,80,0,0,1,36.516-8.82007h63.076a80,80,0,0,1,36.516,8.82007L404.0755,316.535a80,80,0,0,1,43.484,71.17993V501.999a10,10,0,0,1-10,10H74.44049A10,10,0,0,1,64.44049,501.999Z"/><path fill="#a4aed3" d="M187.946,275.48316a80,80,0,0,1,36.516-8.82007h63.076a80,80,0,0,1,36.516,8.82007l-68.054,231Z"/><rect width="101.722" height="80.945" x="205.139" y="220.138" fill="#f9beac"/><path fill="#e58a7b" d="M205.13892,248.26318a88.26651,88.26651,0,0,0,14.66333,13.28272h.00012a63.703,63.703,0,0,0,37.18933,11.98193h12.83838a63.703,63.703,0,0,0,37.03113-11.87256V220.13818H205.13892Z"/><polygon fill="#f96263" points="232.221 466.499 242 316.451 271 316.451 279.779 466.499 256 508.499 232.221 466.499"/><path fill="#d34342" d="M281.45584,323.499l-19.018,19.018a9.10443,9.10443,0,0,1-12.87562,0l-19.018-19.018L256,301.08348Z"/><path fill="#596381" d="M306.86119 266.66309L256 301.08348l23.68874 25.43478a15 15 0 0 0 23.62717-2.16307l14.57614-44.851zM205.13881 266.66309L256 301.08348l-23.68874 25.43478a15 15 0 0 1-23.62717-2.16307l-14.57613-44.851z"/><path fill="#f9beac" d="M336.78336,171.91508v1.6491a88.32532,88.32532,0,0,1-36.76349,71.7129l-.00033.00023a63.70548,63.70548,0,0,1-37.18944,11.98186H249.99171a63.70547,63.70547,0,0,1-37.18938-11.98181l-.00005,0a88.32531,88.32531,0,0,1-36.76359-71.71268v-19.6325l7-9.55494-7-19.56944,39.18964-46.93307,121.555,27.4972-7,23.12713,7,25.43312Z"/><path fill="#e58a7b" d="M269.11546,175.3884v6.19312a12.70119,12.70119,0,0,1-12.70119,12.70119h-.00649a12.70119,12.70119,0,0,1-12.70119-12.70119V175.3884a2,2,0,0,1,2-2h21.40887A2,2,0,0,1,269.11546,175.3884Z"/><path fill="#eaeaea" d="M275.79958,511.999,353.5655,356.6544a5,5,0,0,0-.93462-5.77556l-15.14243-15.14243a5,5,0,0,1,1.4937-8.09963l17.86455-7.992a5,5,0,0,0,2.10853-7.35237L339.57577,283.446l-32.71458-16.78289L255.26389,511.999Z"/><path fill="#eaeaea" d="M235.90334,511.999,158.44657,356.65875a5,5,0,0,1,.92913-5.78649l15.13585-15.13585a5,5,0,0,0-1.4937-8.09963l-17.41141-7.78931a5,5,0,0,1-1.877-7.66931l25.55549-32.25176,25.85393-13.26331L256.73611,511.999Z"/><path fill="#38424f" d="M192.012,51.835A15.97327,15.97327,0,0,0,176.0387,67.80823v86.1239h8.094a5.906,5.906,0,0,0,5.906-5.906V123.39094a12.51536,12.51536,0,0,1,4.882-9.9148,52.32335,52.32335,0,0,0,20.01116-35.10993l3.24-26.53125Z"/><circle cx="396.451" cy="399.86" r="22.282" fill="#343c4a"/><path fill="#343c4a" d="M336.78345,49.43213A45.93311,45.93311,0,0,0,290.85034,3.499H172.87886a5.93308,5.93308,0,0,0-5.65767,7.71973l8.848,28.01849a84.79706,84.79706,0,0,0,80.861,59.26178h32.78649a47.36013,47.36013,0,0,1,27.98492,9.1534,12.48089,12.48089,0,0,1,5.07112,10.0765v30.29721a5.906,5.906,0,0,0,5.906,5.906h8.094v-25.4458l.01074.01269Z"/><path fill="#e58a7b" d="M336.78342,167.56693h0V126.51725h5.7301A17.65977,17.65977,0,0,1,360.17326,144.177v0A23.38984,23.38984,0,0,1,336.78342,167.56693Z"/><path fill="#e58a7b" d="M152.64879,126.51725h.00008a23.38985,23.38985,0,0,1,23.38985,23.38985v.00006a17.65977,17.65977,0,0,1-17.65977,17.65977h-5.73016a0,0,0,0,1,0,0V126.51725A0,0,0,0,1,152.64879,126.51725Z" transform="rotate(-180 164.344 147.042)"/><path d="M405.67773,313.42578l-80.02441-41.05713-1.418-.7334c-7.02661-3.63867-11.47595-5.93017-13.87549-7.145V241.37842a92.07772,92.07772,0,0,0,29.92334-67.81348v-2.73242a26.92511,26.92511,0,0,0,23.39014-26.65479,21.18363,21.18363,0,0,0-21.15967-21.15966H340.2832v-73.585A49.48932,49.48932,0,0,0,290.8501,0H172.87891a9.43319,9.43319,0,0,0-8.99512,12.27393l8.84814,28.01855a89.41512,89.41512,0,0,0,5.60328,13.67725A19.488,19.488,0,0,0,172.54,67.81006v55.208h-2.23145a21.18372,21.18372,0,0,0-21.15966,21.16015,26.92419,26.92419,0,0,0,23.38964,26.6543v2.73291a92.07383,92.07383,0,0,0,29.10157,67.0459v23.93359l-11.25537,5.898c-1.33545.58545-2.69336,1.23291-4.03223,1.92285l-51.88233,26.61866a3.45229,3.45229,0,0,0-.774.39746l-27.37342,14.04394a83.15776,83.15776,0,0,0-45.38281,74.29443V508.5a3.5,3.5,0,1,0,7,0V387.72021a76.186,76.186,0,0,1,41.57764-68.06591l17.33374-8.89307a106.7093,106.7093,0,0,0-11.01441,55.53906,27.95184,27.95184,0,0,0-17.82617,31.37012L104.0625,429.792a3.49972,3.49972,0,0,0,4.0874,2.79151l10.77881-2.03077a3.5,3.5,0,1,0-1.2959-6.8789l-7.33935,1.38281-5.40381-28.68213a20.91128,20.91128,0,0,1,41.09961-7.74267l5.40381,28.68164-7.33936,1.38281a3.5,3.5,0,0,0,1.2959,6.87891l10.77881-2.03077a3.50048,3.50048,0,0,0,2.7915-4.0874l-6.05176-32.12109a27.90339,27.90339,0,0,0-30.13427-22.60889,100.14509,100.14509,0,0,1,15.39526-59.752l28.38037-14.561-15.52319,19.59131a8.50041,8.50041,0,0,0,3.19092,13.03809l17.41162,7.78906a1.5003,1.5003,0,0,1,.44824,2.42969l-15.13672,15.13623a8.48585,8.48585,0,0,0-1.5791,9.83691l76.55322,151.84033a3.50021,3.50021,0,1,0,6.251-3.15136L161.57227,355.084a1.49682,1.49682,0,0,1,.27783-1.73584l15.13672-15.13574a8.5,8.5,0,0,0-2.53955-13.76953l-17.41114-7.78906a1.50014,1.50014,0,0,1-.56347-2.30078l25.08593-31.65967,7.99512-4.102c1.25-.64453,2.51025-1.24414,3.74512-1.7832q.115-.04982.22558-.10791l11.38892-5.96778,45.739,30.95459L230.445,323.38672l-.00989.0083c-.00647.00635-.0105.01416-.01685.021l-.66919.71826a11.457,11.457,0,0,1-10.45068,3.481c-.06689-.0122-.1322-.00732-.19885-.01562a3.40209,3.40209,0,0,0-.47437-.03613,3.34792,3.34792,0,0,0-.40893.04394c-.08557.01123-.17029.00928-.25623.02735-.00757.00146-.01416.00537-.02185.00683a3.54116,3.54116,0,0,0-.45911.146c-.06762.0249-.14062.03955-.20605.06836-.1001.04394-.18994.106-.28516.15869a3.48219,3.48219,0,0,0-.77954.57373c-.01221.01221-.0271.021-.03906.0332-.0531.05469-.093.12012-.14233.17774a4.64972,4.64972,0,0,0-.5918.95117c-.02246.05566-.03259.11767-.05225.1748a3.4636,3.4636,0,0,0-.14184.49707l-.00562.01953c-.01343.07471-.00879.14795-.01733.22266a2.39843,2.39843,0,0,0,.01135.87744c.01111.07959.00867.15821.02551.23828l.00989.04688.00147.00683L252.56348,509.1665l.00134.00684.00989.04687a3.5316,3.5316,0,0,0,.18237.59717l.00439.00879a3.45311,3.45311,0,0,0,.29395.56055c.03162.0498.071.09277.105.14062a3.47947,3.47947,0,0,0,.28406.356c.05481.05859.11572.11084.17456.16553a3.43387,3.43387,0,0,0,.29626.25195c.07129.05322.14539.10108.221.14893a3.495,3.495,0,0,0,.33435.18652c.07727.0376.15393.07422.2345.10645a3.49169,3.49169,0,0,0,.42846.13623c.05.01269.095.03564.14625.04638.0166.00342.03295.002.04956.00537a3.48157,3.48157,0,0,0,.66723.06983L256,512l.00342.00049a3.48157,3.48157,0,0,0,.66723-.06983c.01661-.00341.033-.00195.04956-.00537.05127-.01074.0962-.03369.14625-.04638a3.49169,3.49169,0,0,0,.42846-.13623c.08069-.03223.15735-.06885.23462-.10645a3.59475,3.59475,0,0,0,.334-.186c.07568-.04834.1499-.0962.22143-.14942a3.62656,3.62656,0,0,0,.2959-.25146c.059-.05518.11987-.10743.17468-.166a3.47947,3.47947,0,0,0,.28406-.356c.03394-.04785.07336-.09082.105-.14062a3.45311,3.45311,0,0,0,.294-.56055l.00439-.00879a3.5316,3.5316,0,0,0,.18237-.59717l.00977-.04638.00159-.00781,37.29711-177.332.00147-.00683.00989-.04688c.01684-.08007.0144-.15869.02551-.23828a2.40121,2.40121,0,0,0,.01111-.87939c-.00855-.07422-.00379-.14649-.01709-.22071l-.00537-.019a3.45754,3.45754,0,0,0-.14246-.499c-.01953-.05664-.02954-.11817-.05188-.17334a4.72633,4.72633,0,0,0-.63318-1.00293c-.03552-.04053-.06311-.08692-.10046-.12549-.02771-.02832-.06177-.04932-.09033-.07715a3.47416,3.47416,0,0,0-.71167-.52051c-.10071-.05712-.19654-.12207-.30249-.16894-.064-.02783-.13514-.042-.20118-.06641a3.46187,3.46187,0,0,0-.46386-.14746l-.02173-.00683c-.07874-.01661-.15625-.01416-.23462-.02491a2.28144,2.28144,0,0,0-.83521-.01513c-.08984.00879-.17822.00439-.26855.0205a11.46286,11.46286,0,0,1-10.4502-3.48046l-.66979-.71924c-.00623-.00635-.01038-.01416-.01673-.02051l-.00976-.00781L261.34766,301.687l45.7854-30.98584q3.50353,1.77466,13.88354,7.1499l16.15112,8.2876,18.88208,28.10645a1.49968,1.49968,0,0,1-.63232,2.20556l-17.86475,7.99219a8.5,8.5,0,0,0-2.53955,13.76953L350.15576,353.355a1.49773,1.49773,0,0,1,.28076,1.73242L274.34619,506.93213a3.49975,3.49975,0,1,0,6.25781,3.13574l76.09034-151.84473a8.48775,8.48775,0,0,0-1.58838-9.81835l-15.14258-15.14258a1.4999,1.4999,0,0,1,.44775-2.42969l17.86426-7.99219a8.49947,8.49947,0,0,0,3.585-12.49853L350.037,292.74219l18.64,9.56494a106.65025,106.65025,0,0,1,22.86988,49.97363,102.762,102.762,0,0,1,1.21765,22.06592,25.79619,25.79619,0,1,0,7.01074-.0459,109.72517,109.72517,0,0,0-1.32166-23.15771A111.77251,111.77251,0,0,0,382.37085,309.334l20.11206,10.32032a76.18643,76.18643,0,0,1,41.57715,68.06591V508.5a3.5,3.5,0,0,0,7,0V387.72021A83.1582,83.1582,0,0,0,405.67773,313.42578ZM340.2832,130.01807h2.23047a14.17587,14.17587,0,0,1,14.15967,14.16015,19.9223,19.9223,0,0,1-16.39014,19.58155Zm-167.74463,33.7417a19.924,19.924,0,0,1-16.38964-19.58155,14.17587,14.17587,0,0,1,14.15966-14.16015h2.23Zm-1.98-153.59375A2.43329,2.43329,0,0,1,172.87891,7H290.8501a42.48146,42.48146,0,0,1,42.4331,42.43311V128.2124c-.00732.09131-.01074.18262-.01074.2749v21.94581h-4.59375a2.40876,2.40876,0,0,1-2.40625-2.40577V117.73a16.026,16.026,0,0,0-6.50293-12.90039A50.53409,50.53409,0,0,0,289.7168,95H256.93018a81.25631,81.25631,0,0,1-41.35474-11.23828,3.4705,3.4705,0,0,0-.99829-.59131,80.83607,80.83607,0,0,1-28.598-29.73389,3.5438,3.5438,0,0,0-.27991-.5122,82.2092,82.2092,0,0,1-6.29248-14.74024Zm38.55713,77.84277a49.19243,49.19243,0,0,1-16.33008,22.69726,16.10574,16.10574,0,0,0-6.2456,12.68409v24.63965a2.40783,2.40783,0,0,1-2.41016,2.40039H179.54V67.81006a12.45349,12.45349,0,0,1,2.44482-7.374A87.76478,87.76478,0,0,0,209.11572,88.00879ZM233.92688,386.5459l-10.90125-51.83154a18.36176,18.36176,0,0,0,9.81739-3.96143l4.43139,4.43164ZM256,491.49414l-16.71765-79.48535L243.86011,341.77l3.22876,3.22852a12.64359,12.64359,0,0,0,17.82617-.00342l4.0166-4.0166,4.07617,69.65039Zm23.15686-160.74072a18.36459,18.36459,0,0,0,9.81751,3.96094l-10.48072,49.832-2.9375-50.19239Zm-4.933-4.96729L259.96875,340.0415a5.62835,5.62835,0,0,1-7.93359.00342l-14.25891-14.25879L256,306.21582Zm29.136-60.9834L256,296.85449l-47.35986-32.05176V246.54736q1.047.79981,2.11914,1.57276a66.816,66.816,0,0,0,39.23242,12.64013h12.83838a66.8182,66.8182,0,0,0,39.2334-12.64062c.43774-.31494.86523-.64063,1.29638-.9624Zm-5.3833-22.36621a59.85673,59.85673,0,0,1-35.14648,11.32373H249.9917a59.85678,59.85678,0,0,1-35.14649-11.32373,85.02387,85.02387,0,0,1-35.30664-68.87109V157.43018h4.59131a9.41568,9.41568,0,0,0,9.41016-9.40039V123.39014a8.94386,8.94386,0,0,1,3.5166-7.13819,56.27723,56.27723,0,0,0,18.20569-24.63427A88.32866,88.32866,0,0,0,256.93018,102H289.7168a43.58008,43.58008,0,0,1,25.917,8.47705,9.00269,9.00269,0,0,1,3.63867,7.25293v30.29736a9.41662,9.41662,0,0,0,9.40625,9.40577h4.60449v16.13183A85.02612,85.02612,0,0,1,297.97656,242.43652ZM415.2334,399.86133a18.78223,18.78223,0,1,1-18.78223-18.78223A18.80374,18.80374,0,0,1,415.2334,399.86133Zm-31.35352,31.96484a3.49987,3.49987,0,0,0-3.5,3.5V508.5a3.5,3.5,0,0,0,7,0V435.32617A3.49986,3.49986,0,0,0,383.87988,431.82617Zm-255.75976,0a3.49986,3.49986,0,0,0-3.5,3.5V508.5a3.5,3.5,0,0,0,7,0V435.32617A3.49987,3.49987,0,0,0,128.12012,431.82617Zm141.0122-221.063a29.69537,29.69537,0,0,1-25.44189.00049,3.49987,3.49987,0,0,0-2.998,6.3252,36.91933,36.91933,0,0,0,15.71973,3.53711h.11084a36.955,36.955,0,0,0,15.60644-3.53662,3.50011,3.50011,0,1,0-2.99707-6.32618Zm35.15284-83.61474a34.20678,34.20678,0,0,0-26.01709,0,3.50024,3.50024,0,1,0,2.65722,6.47656,27.16871,27.16871,0,0,1,9.66162-2.0376,27.445,27.445,0,0,1,11.043,2.0376,3.49987,3.49987,0,0,0,2.65528-6.47656Zm-69.73194,0a34.208,34.208,0,0,0-26.01758,0,3.50024,3.50024,0,0,0,2.65723,6.47656,27.20978,27.20978,0,0,1,20.70508,0,3.49987,3.49987,0,1,0,2.65527-6.47656Zm-13.0083,10.01318a3.49987,3.49987,0,0,0-3.5,3.5v7.43311a3.5,3.5,0,0,0,7,0v-7.43311A3.49986,3.49986,0,0,0,221.54492,137.16162Zm69.73242,0a3.49987,3.49987,0,0,0-3.5,3.5v7.43311a3.5,3.5,0,1,0,7,0v-7.43311A3.49986,3.49986,0,0,0,291.27734,137.16162Zm-34.86621,60.62207a16.22078,16.22078,0,0,0,16.2041-16.20117v-5.52979a3.5,3.5,0,0,0-7,0v5.52979a9.20435,9.20435,0,0,1-18.40869,0v-5.52979a3.5,3.5,0,0,0-7,0v5.52979A16.2212,16.2212,0,0,0,256.41113,197.78369Z"/><line x1="306.861" x2="293.32" y1="266.663" y2="331.06" fill="none" stroke="#000" stroke-linecap="round" stroke-linejoin="round" stroke-width="7"/><line x1="205.139" x2="218.68" y1="266.663" y2="331.06" fill="none" stroke="#000" stroke-linecap="round" stroke-linejoin="round" stroke-width="7"/></svg>