<svg id="Capa_1" enable-background="new 0 0 512 512" height="512" viewBox="0 0 512 512" width="512" xmlns="http://www.w3.org/2000/svg"><g><g><g><path d="m256 117.056c-131.194 1.902-223.197 103.887-246.015 131.894-3.347 4.108-3.347 9.99 0 14.098 22.818 28.007 114.821 129.993 246.015 131.895 131.194-1.902 223.197-103.888 246.015-131.895 3.347-4.108 3.347-9.99 0-14.098-22.818-28.007-114.821-129.992-246.015-131.894z" fill="#b3dafe"/></g><g><path d="m502.019 263.052c-22.824 28.002-114.827 129.993-246.019 131.892-3.699-.05-7.358-.19-10.987-.4 125.334-7.188 212.848-104.28 235.022-131.492 3.349-4.109 3.349-9.997 0-14.106-22.174-27.212-109.688-124.304-235.022-131.492 3.629-.21 7.288-.35 10.987-.4 131.192 1.899 223.195 103.89 246.019 131.892 3.339 4.109 3.339 9.997 0 14.106z" fill="#8ac9fe"/></g><g><path d="m256 147.891c-105.448 1.48-179.396 80.832-197.736 102.623-2.69 3.197-2.69 7.773 0 10.969 18.34 21.792 92.288 101.144 197.736 102.624 105.448-1.48 179.396-80.832 197.736-102.623 2.69-3.197 2.69-7.773 0-10.969-18.34-21.792-92.288-101.143-197.736-102.624z" fill="#eaf6ff"/></g><g><path d="m453.733 261.483c-18.335 21.793-92.284 101.14-197.733 102.62-3.609-.05-7.178-.19-10.717-.42 99.731-6.418 169.301-81.156 187.016-102.2 2.689-3.199 2.689-7.768 0-10.967-17.715-21.044-87.285-95.782-187.016-102.2 3.539-.23 7.108-.37 10.717-.42 105.449 1.48 179.398 80.826 197.733 102.62 2.689 3.199 2.689 7.768 0 10.967z" fill="#d8ecfe"/></g><g><circle cx="256" cy="255.999" fill="#bc7c63" r="108.108"/></g><g><path d="m364.109 256.004c0 59.703-48.406 108.099-108.109 108.099-17.065 0-33.21-3.959-47.566-11.007 9.297 2.609 19.114 4.009 29.252 4.009 59.713 0 108.109-48.396 108.109-108.099 0-42.648-24.683-79.517-60.542-97.102 45.495 12.757 78.856 54.525 78.856 104.1z" fill="#aa6a51"/></g><g><circle cx="256" cy="255.999" fill="#7c4b37" r="71.888"/></g><g><path d="m327.889 256.004c0 39.698-32.191 71.879-71.889 71.879-19.474 0-37.129-7.748-50.085-20.314 10.197 5.538 21.884 8.687 34.3 8.687 39.698 0 71.889-32.181 71.889-71.889 0-20.214-8.348-38.489-21.784-51.545 22.374 12.177 37.569 35.9 37.569 63.182z" fill="#683a2a"/></g><g><circle cx="300.898" cy="212.235" fill="#edd9d3" r="44.898"/></g><g><path d="m345.794 212.237c0 24.793-20.104 44.897-44.897 44.897-15.086 0-28.442-7.448-36.579-18.865 6.268 3.319 13.416 5.198 20.994 5.198 24.793 0 44.897-20.104 44.897-44.897 0-9.697-3.079-18.685-8.308-26.022 14.216 7.528 23.893 22.474 23.893 39.689z" fill="#e5c7be"/></g></g><g><g><path d="m71.745 396.066c-3.362 12.222-13.607 35.076-44.274 47.277-1.413.562-1.413 2.538 0 3.101 30.667 12.202 40.912 35.055 44.274 47.277.448 1.628 2.748 1.628 3.196 0 3.362-12.222 13.607-35.076 44.274-47.277 1.413-.562 1.413-2.538 0-3.101-30.667-12.202-40.912-35.055-44.274-47.277-.447-1.628-2.748-1.628-3.196 0z" fill="#fec165"/></g><g><path d="m119.22 446.449c-30.668 12.193-40.914 35.055-44.282 47.268-.443 1.637-2.75 1.637-3.192 0-1.545-5.613-4.541-13.46-10.298-21.492 8.345-11.426 10.196-14.366 25.948-25.828 1.192-.867 1.247-2.22 0-3.007-14.052-8.862-19.429-16.394-25.948-25.828 5.757-8.032 8.753-15.88 10.298-21.492.443-1.637 2.75-1.637 3.192 0 3.367 12.214 13.614 35.075 44.282 47.268 1.411.567 1.411 2.544 0 3.111z" fill="#fdb441"/></g><g><path d="m426.142 18.553c-4.119 14.972-16.668 42.966-54.233 57.912-1.731.689-1.731 3.109 0 3.798 37.566 14.947 50.115 42.941 54.233 57.912.549 1.995 3.367 1.995 3.915 0 4.119-14.972 16.668-42.966 54.233-57.912 1.731-.689 1.731-3.109 0-3.798-37.566-14.947-50.115-42.941-54.233-57.912-.549-1.994-3.367-1.994-3.915 0z" fill="#fec165"/></g><g><path d="m484.286 80.268c-37.557 14.942-50.11 42.933-54.23 57.906-.546 1.998-3.367 1.998-3.913 0-1.668-6.055-4.706-14.232-10.216-22.81 12.171-15.039 12.171-20.874 34.175-35.101 1.572-1.016 1.627-2.874 0-3.8-22.004-12.524-26.05-22.445-34.175-35.101 5.509-8.578 8.547-16.755 10.216-22.81.546-1.998 3.367-1.998 3.913 0 4.119 14.973 16.673 42.963 54.23 57.916 1.73.69 1.73 3.11 0 3.8z" fill="#fdb441"/></g><g><path d="m507.827 244.215c-25.338-31.1-118.373-132.723-251.719-134.656-.073-.001-.144-.001-.218 0-133.344 1.933-226.38 103.556-251.718 134.656-5.563 6.828-5.563 16.741 0 23.57 25.338 31.1 118.373 132.723 251.719 134.655.037 0 .073.001.109.001s.072 0 .109-.001c46.112-.668 91.99-13.437 136.358-37.951 3.624-2.002 4.94-6.564 2.937-10.188-2.002-3.624-6.563-4.939-10.188-2.937-42.154 23.29-85.63 35.43-129.216 36.081-54.354-.811-107.978-19.257-159.382-54.825-41.955-29.029-70.496-61.635-80.82-74.306-1.092-1.341-1.092-3.287 0-4.626 10.324-12.672 38.865-45.278 80.82-74.307 51.405-35.568 105.028-54.013 159.382-54.825 54.354.812 107.977 19.257 159.382 54.825 41.955 29.029 70.496 61.635 80.82 74.307 1.092 1.34 1.092 3.286 0 4.626-10.44 12.814-39.304 45.768-81.743 74.944-3.412 2.346-4.277 7.014-1.931 10.426s7.014 4.277 10.426 1.931c44.039-30.276 74.025-64.514 84.874-77.83 5.563-6.83 5.563-16.742-.001-23.57z"/><path d="m459.472 245.686c-20.027-23.796-92.424-100.381-196.48-105.075-4.557-.273-9.236-.213-13.799-.012-42.846 1.894-85.021 16.165-125.467 42.491-3.471 2.259-4.453 6.903-2.194 10.374s6.904 4.452 10.374 2.194c14.701-9.568 29.623-17.443 44.709-23.619-22.291 21.087-36.221 50.926-36.221 83.96 0 33.083 13.972 62.96 36.32 84.052-58.663-23.891-98.864-66.939-112.713-83.396-.341-.405-.341-.909 0-1.313 6.509-7.734 20.434-23.169 40.562-39.648 3.204-2.623 3.675-7.347 1.052-10.551s-7.346-3.675-10.551-1.052c-21.066 17.246-35.692 33.463-42.537 41.595-5.028 5.975-5.028 14.65 0 20.625 20.027 23.796 92.422 100.382 196.482 105.076 45.236 2.057 91.204-13.342 129.844-36.52 27.943-16.761 53.417-38.003 75.157-62.272 1.852-2.067 3.676-4.16 5.463-6.284 5.028-5.975 5.028-14.649-.001-20.625zm-121.174-33.451c0 20.622-16.778 37.4-37.4 37.4s-37.4-16.778-37.4-37.4c0-20.623 16.778-37.4 37.4-37.4s37.4 16.777 37.4 37.4zm-37.4 52.396c6.807 0 13.312-1.309 19.283-3.682-2.539 33.198-30.344 59.441-64.181 59.441-35.505 0-64.391-28.886-64.391-64.391 0-34.402 27.119-62.589 61.102-64.307-2.703 6.311-4.209 13.252-4.209 20.542 0 28.892 23.505 52.397 52.396 52.397zm-38.771 91.786c-4.15.25-8.093.184-12.253 0-52.634-3.178-94.484-46.999-94.484-100.418 0-53.446 41.892-97.285 94.563-100.423 4.054-.241 8.12-.24 12.174.005 9.523.575 18.691 2.48 27.324 5.532-10.635 2.38-20.052 8.008-27.171 15.773-2.073-.167-4.164-.273-6.28-.273-43.773 0-79.386 35.612-79.386 79.386s35.613 79.386 79.386 79.386 79.386-35.613 79.386-79.386c0-1.427-.052-2.842-.131-4.249 7.956-6.929 13.811-16.211 16.46-26.755 3.173 9.771 4.895 20.189 4.895 31.004 0 53.419-41.849 97.24-94.483 100.418zm185.872-99.761c-13.85 16.457-54.051 59.505-112.714 83.396 22.348-21.092 36.32-50.97 36.32-84.052s-13.972-62.96-36.32-84.052c58.663 23.891 98.863 66.938 112.713 83.395.342.404.342.908.001 1.313z"/><path d="m121.988 436.377c-27.533-10.955-36.764-31.204-39.817-42.3-1.108-4.026-4.655-6.73-8.828-6.73-4.172 0-7.719 2.704-8.828 6.73-3.052 11.095-12.284 31.344-39.816 42.299-3.516 1.398-5.787 4.741-5.787 8.517s2.271 7.119 5.786 8.517c27.533 10.954 36.764 31.204 39.817 42.3 1.108 4.025 4.655 6.729 8.827 6.729s7.719-2.704 8.828-6.73c3.052-11.095 12.284-31.345 39.817-42.299 3.515-1.399 5.785-4.742 5.785-8.517s-2.269-7.118-5.784-8.516zm-48.645 40.945c-5.539-10.781-15.129-23.13-31.699-32.428 16.569-9.298 26.16-21.647 31.699-32.428 5.539 10.781 15.13 23.13 31.699 32.428-16.569 9.297-26.16 21.646-31.699 32.428z"/><path d="m369.137 87.231c34.405 13.689 45.954 39.041 49.776 52.934 1.152 4.19 4.845 7.005 9.187 7.005s8.034-2.815 9.187-7.005c3.822-13.893 15.371-39.245 49.775-52.934 3.66-1.456 6.025-4.936 6.025-8.865 0-3.93-2.365-7.411-6.025-8.866-34.405-13.689-45.954-39.041-49.776-52.934-1.153-4.19-4.845-7.005-9.187-7.005s-8.035 2.815-9.187 7.005c-3.822 13.893-15.371 39.245-49.775 52.934-3.66 1.456-6.025 4.936-6.025 8.866 0 3.929 2.365 7.409 6.025 8.865zm58.963-52.42c6.642 14.199 19.099 31.345 42.367 43.553-23.269 12.208-35.725 29.355-42.367 43.554-6.643-14.199-19.099-31.345-42.368-43.553 23.269-12.208 35.725-29.355 42.368-43.554z"/></g></g></g></svg>