<svg height="512" viewBox="0 0 42 58" width="512" xmlns="http://www.w3.org/2000/svg"><g id="012---Homeothapy" fill="none"><path id="Shape" d="m42 16v37c0 2.7614237-2.2385763 5-5 5h-32c-2.76142375 0-5-2.2385763-5-5v-37c0-2.7614237 2.23857625-5 5-5 1.06127285.0013291 2.07946091-.4196715 2.82989472-1.17010528.75043382-.75043381 1.17143436-1.76862187 1.17010528-2.82989472v-3.26h24v3.26c-.0013291 1.06127285.4196715 2.07946091 1.1701053 2.82989472.7504338.75043378 1.7686219 1.17143438 2.8298947 1.17010528 1.3273046-.0039999 2.6013996.5214997 3.5399499 1.4600501.9385504.9385503 1.46405 2.2126453 1.4600501 3.5399499z" fill="#33907c"/><rect id="Rectangle-path" fill="#3f5c6c" height="7" rx="2" width="32" x="5"/><path id="Rectangle-path" d="m0 20h42v29h-42z" fill="#ecf0f1"/><path id="Shape" d="m31.46 43.55c-.03.84-.09 1.33-.09 1.33s-.49.06-1.31.09c-3.01.14-10.49-.04-14.99-4.54-5.73-5.73-4.44-16.3-4.44-16.3s10.57-1.28 16.3 4.45c4.49 4.49 4.67 11.96 4.53 14.97z" fill="#26b99a"/><path id="Shape" d="m31.46 43.55c-.03.84-.09 1.33-.09 1.33s-.49.06-1.31.09l-9.38-9.38-1.7-1.7-3.87-3.87c-.2853762-.2443899-.4096819-.6281184-.3218101-.993419.0878718-.3653005.3730906-.6505193.7383911-.7383911.3653006-.0878718.7490291.0364339.993419.3218101l7.57 7.57 1.7 1.7z" fill="#14a085"/><path id="Shape" d="m17.294 36.245c-.5157092.0031386-.949225-.3864226-1.0010282-.899533s.2950985-.9814619.8010282-1.081467l3.051-.61.61-3.051c.0709172-.3511921.3238062-.6378731.663406-.752053.3395999-.11418.7143174-.0385122.9830001.1985.2686826.2370122.3905111.5993609.3195939.950553l-.741 3.7c-.0792721.3955483-.3884517.7047279-.784.784l-3.7.741c-.0665191.0132439-.1341753.0199425-.202.02z" fill="#14a085"/><path id="Shape" d="m21 39.95c-.5157092.0031386-.949225-.3864226-1.0010282-.899533s.2950985-.9814619.8010282-1.081467l3.051-.61.61-3.051c.0656425-.3546438.31717-.6464624.6582529-.7636957.3410828-.1172333.7188673-.0417149.9886703.1976333.2698029.2393481.389816.6054369.3140768.9580624l-.741 3.7c-.0792721.3955483-.3884517.7047279-.784.784l-3.697.746c-.0658466.0132285-.1328378.0199276-.2.02z" fill="#14a085"/><path id="Shape" d="m4 26c-.55228475 0-1-.4477153-1-1v-1c0-.5522847.44771525-1 1-1s1 .4477153 1 1v1c0 .5522847-.44771525 1-1 1z" fill="#fff"/><path id="Shape" d="m4 46c-.55228475 0-1-.4477153-1-1v-16c0-.5522847.44771525-1 1-1s1 .4477153 1 1v16c0 .5522847-.44771525 1-1 1z" fill="#fff"/><g fill="#2c3e50"><path id="Shape" d="m22 4v3h-2v-3c0-.55228475.4477153-1 1-1s1 .44771525 1 1z"/><path id="Shape" d="m18 4v3h-2v-3c0-.55228475.4477153-1 1-1s1 .44771525 1 1z"/><path id="Shape" d="m14 4v3h-2v-3c0-.55228475.4477153-1 1-1s1 .44771525 1 1z"/><path id="Shape" d="m10 4v3h-2v-3c0-.55228475.44771525-1 1-1s1 .44771525 1 1z"/><path id="Shape" d="m26 4v3h-2v-3c0-.55228475.4477153-1 1-1s1 .44771525 1 1z"/><path id="Shape" d="m30 4v3h-2v-3c0-.55228475.4477153-1 1-1s1 .44771525 1 1z"/><path id="Shape" d="m34 4v3h-2v-3c0-.55228475.4477153-1 1-1s1 .44771525 1 1z"/></g></g></svg>