<svg id="Capa_1" enable-background="new 0 0 497 497" height="512" viewBox="0 0 497 497" width="512" xmlns="http://www.w3.org/2000/svg"><g><path d="m420.753 0c13.247 0 23.989 10.733 24 23.98l.367 449.029c0 1.36-.113 2.694-.331 3.992-1.902 11.349-13.222 16.456-20.095 12.07l-343.783 3.543c-18.284 4.386-24.007-10.748-24.007-24.008l-.511-444.766c0-11.894 4.134-21.599 15.485-23.507 1.304-.219 2.643-.333 4.009-.333h263.913z" fill="#f5fcff"/><path d="m444.779 477c-1.89 11.35-11.77 20-23.67 20h-345.22c-13.26 0-24.01-10.75-24.01-24.01v-448.98c0-11.89 8.65-21.77 20-23.67v466.66c0 5.5 4.5 10 10 10z" fill="#e6f7fe"/><path d="m325.499 107.755c0 18.181-6.301 34.891-16.84 48.064-14.11 17.638-33.199 23.085-57.543 23.085-42.526 0-74.383-29.985-74.383-72.511 0-23.552 5.34-43.273 22-57.397 13.421-11.379 30.792-18.241 49.766-18.241 42.526 0 77 34.474 77 77z" fill="#bed9fd"/><path d="m311.189 152.47c-13.96 19.55-36.84 32.29-62.69 32.29-42.53 0-77-34.48-77-77 0-25.86 12.75-48.75 32.3-62.7-9 12.6-14.3 28.04-14.3 44.7 0 42.52 34.47 77 77 77 16.66 0 32.091-5.29 44.69-14.29z" fill="#9ec8fc"/><path d="m378.826 452.051-7.88-1.487c-4.09 11.877-7.334 13.713-17.938 6.979l-1.976-2.043c-4.196-2.664-6.525.414-11.404 1.362l-1.191-1.872c-12.331 2.396-21.466-2.088-20.936-14.638l1.532-3.574c.21-4.966-2.117-7.173-5.378-10.925l2.144-.309c-8.24-9.481-11.185-21.417-.051-27.234l.391.742c2.203-1.151 3.748-5.37 5.341-7.22 1.592-1.85 2.836-4 3.645-6.35 4.09-11.877 18.201-16.815 28.805-10.081 4.196 2.664 9.252 3.621 14.131 2.673 12.331-2.396 23.663 7.355 23.133 19.906-.21 4.966 1.49 9.823 4.751 13.574 8.24 9.481 5.462 24.171-5.672 29.987-2.025 1.058-3.829 2.454-5.344 4.11-1.781 1.945-5.228 3.861-6.103 6.4z" fill="#d5717f"/><path d="m384.929 445.65c-.13.14-.26.29-.39.44-1.6 1.85-2.84 4-3.65 6.35-4.09 11.88-18.2 16.82-28.8 10.08-3.14-1.99-6.76-3.03-10.43-3.03-1.23 0-2.47.12-3.7.36-1.27.25-2.52.36-3.76.36-10.78 0-19.86-9.01-19.38-20.27.01-.27.02-.55.02-.82 0-4.67-1.69-9.21-4.77-12.75-3.23-3.72-4.77-8.25-4.77-12.72 0-6.93 3.68-13.73 10.44-17.27 2.2-1.15 4.15-2.7 5.74-4.55.48-.55.92-1.13 1.33-1.74-.18 1.73-.27 3.48-.27 5.26 0 28.43 23.04 51.47 51.47 51.47 3.75 0 7.4-.4 10.92-1.17z" fill="#cd5668"/><path d="m263.503 140.392v-15.637c0-1.105.895-2 2-2h15.629c2.792 0 5.043-2.287 4.999-5.078l-.314-20c-.043-2.731-2.269-4.922-4.999-4.922h-15.315c-1.105 0-2-.895-2-2v-15.354c0-2.734-2.196-4.961-4.929-5l-12.075-.171-6.128.737c-2.789-.039-5.071 2.21-5.071 5l.858 14.788c0 1.105-3.551 2-4.656 2h-15.354c-2.734 0-4.961 2.196-4.999 4.929l-.171 12.076 1.755 6.336c-.039 2.789 2.21 5.071 4.999 5.071l17.979-3.539c1.105 0 2 .895 2 2l-3.642 16.745c0 2.734 2.196 4.961 4.929 5l7.5 3.851 11.933.169c2.791.038 5.072-2.211 5.072-5.001z" fill="#d5717f"/><path d="m246.499 70.23v20.53c0 1.1-.89 2-2 2h-13c1.11 0 2-.9 2-2v-15.64c0-2.79 2.29-5.04 5.07-5z" fill="#cd5668"/><path d="m246.499 111.76v33.46l-8.07-.11c-2.73-.04-4.93-2.27-4.93-5v-15.35c0-1.11-.89-2-2-2h-15.63c-2.79 0-5.04-2.29-5-5.08l.11-7.92h33.52c1.11 0 2 .89 2 2z" fill="#cd5668"/><g><path d="m184.676 473.061c-9.217 0-17.11-7.155-18.361-16.644-.009-.066-.017-.131-.023-.197l-4.247-40.457c-.103-.98-.918-1.712-1.901-1.712-.007 0-.015 0-.021 0-.917.01-1.699.673-1.86 1.577l-5.483 30.818c-.026.147-.057.293-.092.439-2.006 8.347-9.402 14.176-17.987 14.176h-21.416c-4.143 0-7.5-3.358-7.5-7.5s3.357-7.5 7.5-7.5h21.416c1.569 0 2.93-1.03 3.361-2.525l5.432-30.536c1.421-7.991 8.344-13.857 16.46-13.948.064-.001.131-.001.195-.001 8.694 0 15.904 6.479 16.813 15.147l4.234 40.335c.298 2.017 1.782 3.528 3.479 3.528 1.66 0 3.114-1.43 3.458-3.399l4.34-24.87c1.491-8.536 8.642-14.73 17.004-14.73 8.181 0 15.121 5.788 16.876 14.076l2.956 13.958c.364 1.719 1.677 2.967 3.121 2.967h21.746c4.143 0 7.5 3.358 7.5 7.5s-3.357 7.5-7.5 7.5h-21.746c-8.625 0-15.943-6.11-17.795-14.859l-2.956-13.958c-.269-1.265-1.194-2.184-2.202-2.184-1.04 0-1.997.993-2.227 2.31l-4.34 24.869c-1.599 9.165-9.267 15.82-18.234 15.82z" fill="#d3effd"/></g><g fill="#e6f7fe"><path d="m383.716 222.327h-197.617c-4.143 0-7.5-3.358-7.5-7.5s3.357-7.5 7.5-7.5h197.617c4.143 0 7.5 3.358 7.5 7.5s-3.357 7.5-7.5 7.5z"/><path d="m278.861 250.327h-92.762c-4.143 0-7.5-3.358-7.5-7.5s3.357-7.5 7.5-7.5h92.762c4.143 0 7.5 3.358 7.5 7.5s-3.358 7.5-7.5 7.5z"/><path d="m383.716 283h-197.617c-4.143 0-7.5-3.358-7.5-7.5s3.357-7.5 7.5-7.5h197.617c4.143 0 7.5 3.358 7.5 7.5s-3.357 7.5-7.5 7.5z"/><path d="m278.861 311h-92.762c-4.143 0-7.5-3.358-7.5-7.5s3.357-7.5 7.5-7.5h92.762c4.143 0 7.5 3.358 7.5 7.5s-3.358 7.5-7.5 7.5z"/></g><g fill="#94d4a2"><path d="m127.835 252.663c-2.291 0-4.466-1.049-5.893-2.861l-14.395-18.288c-2.359-2.998-2.309-7.364.369-10.081 3.237-3.286 8.498-2.905 11.26.603l7.12 9.045c.427.542 1.262.499 1.631-.084l14.254-22.518c2.214-3.5 6.85-4.54 10.348-2.326 3.5 2.215 4.542 6.849 2.326 10.349l-20.681 32.673c-1.302 2.057-3.521 3.354-5.952 3.479-.13.006-.259.009-.387.009z"/><path d="m127.835 313.337c-2.291 0-4.466-1.049-5.893-2.861l-14.359-18.242c-2.54-3.227-2.269-7.997.88-10.633 3.258-2.728 8.1-2.209 10.713 1.108l7.12 9.046c.427.542 1.262.499 1.631-.084l14.254-22.519c2.214-3.5 6.85-4.54 10.348-2.326 3.5 2.215 4.542 6.849 2.326 10.349l-20.681 32.674c-1.302 2.057-3.521 3.354-5.952 3.479-.13.005-.259.009-.387.009z"/><path d="m127.835 374.01c-2.291 0-4.466-1.049-5.893-2.861l-14.395-18.288c-2.36-2.998-2.309-7.364.369-10.082 3.237-3.285 8.498-2.904 11.26.603l7.12 9.045c.427.542 1.262.499 1.631-.084l14.254-22.518c2.214-3.5 6.85-4.54 10.348-2.326 3.5 2.215 4.542 6.849 2.326 10.349l-20.681 32.673c-1.302 2.057-3.521 3.354-5.952 3.479-.13.007-.259.01-.387.01z"/></g><path d="m383.716 343.673h-197.617c-4.143 0-7.5-3.358-7.5-7.5s3.357-7.5 7.5-7.5h197.617c4.143 0 7.5 3.358 7.5 7.5s-3.357 7.5-7.5 7.5z" fill="#e6f7fe"/><path d="m278.861 371.673h-92.762c-4.143 0-7.5-3.358-7.5-7.5s3.357-7.5 7.5-7.5h92.762c4.143 0 7.5 3.358 7.5 7.5s-3.358 7.5-7.5 7.5z" fill="#e6f7fe"/></g></svg>