<svg xmlns="http://www.w3.org/2000/svg" viewBox="0 0 32 32"><path d="M27,5H23V3a1,1,0,0,0-2,0V5H11V3A1,1,0,0,0,9,3V5H5A3,3,0,0,0,2,8V27a3,3,0,0,0,3,3H27a3,3,0,0,0,3-3V8A3,3,0,0,0,27,5ZM4,8A1,1,0,0,1,5,7H27a1,1,0,0,1,1,1V9H4ZM27,28H5a1,1,0,0,1-1-1V11H28V27A1,1,0,0,1,27,28Z"/><path d="M13 12H8a2 2 0 0 0-2 2v3a2 2 0 0 0 2 2h5a2 2 0 0 0 2-2V14A2 2 0 0 0 13 12zM8 17V14h5v3zM13 20H8a2 2 0 0 0-2 2v3a2 2 0 0 0 2 2h5a2 2 0 0 0 2-2V22A2 2 0 0 0 13 20zM8 25V22h5v3zM24 12H19a2 2 0 0 0-2 2v3a2 2 0 0 0 2 2h5a2 2 0 0 0 2-2V14A2 2 0 0 0 24 12zm-5 5V14h5v3zM24 20H19a2 2 0 0 0-2 2v3a2 2 0 0 0 2 2h5a2 2 0 0 0 2-2V22A2 2 0 0 0 24 20zm-5 5V22h5v3z"/></svg>