<svg xmlns="http://www.w3.org/2000/svg" data-name="Layer 1" viewBox="0 0 64 64"><path fill="none" stroke="#3c3b72" stroke-linecap="round" stroke-linejoin="round" stroke-width="3" d="M49.93,4.3h4.15a1,1,0,0,1,1,1V26.77a7.41,7.41,0,0,1-7.41,7.41H38.8a7.41,7.41,0,0,1-7.41-7.41V5.3a1,1,0,0,1,1-1h4.15"/><path fill="#c4c8d1" stroke="#3c3b72" stroke-linecap="round" stroke-linejoin="round" stroke-width="3" d="M31.39,25.71v1.06a7.41,7.41,0,0,0,7.41,7.41h8.87a7.41,7.41,0,0,0,7.41-7.41V25.71Z"/><path fill="none" stroke="#3c3b72" stroke-linecap="round" stroke-linejoin="round" stroke-width="3" d="M14.42,34.81V45.29A14.41,14.41,0,0,0,28.83,59.7h0A14.41,14.41,0,0,0,43.24,45.29V40"/><circle cx="14.42" cy="29.31" r="5.5" fill="#fffaf0" stroke="#3c3b72" stroke-linecap="round" stroke-linejoin="round" stroke-width="3"/><path fill="#c4c8d1" stroke="#3c3b72" stroke-linecap="round" stroke-linejoin="round" stroke-width="3" d="M43.24,40h0a3.85,3.85,0,0,1-3.8-3.2L39,34.18h8.5L47,36.84A3.84,3.84,0,0,1,43.24,40Z"/></svg>